<?xml version="1.0" standalone="no"?>
<!DOCTYPE svg PUBLIC "-//W3C//DTD SVG 20010904//EN"
 "http://www.w3.org/TR/2001/REC-SVG-20010904/DTD/svg10.dtd">
<svg version="1.0" xmlns="http://www.w3.org/2000/svg"
 width="8000.000000pt" height="8000.000000pt" viewBox="0 0 8000.000000 8000.000000"
 preserveAspectRatio="xMidYMid meet">

<g transform="translate(0.000000,8000.000000) scale(0.100000,-0.100000)"
fill="#000000" stroke="none">
<path d="M53720 70067 c-3 -2 -135 -7 -295 -11 -363 -8 -709 -27 -1030 -56
-147 -14 -490 -49 -540 -55 -22 -3 -96 -12 -165 -20 -997 -124 -2049 -347
-3035 -645 -2168 -656 -4080 -1654 -5797 -3027 -959 -766 -1856 -1654 -2656
-2630 -1082 -1320 -2042 -2882 -2753 -4480 -52 -117 -97 -211 -100 -210 -4 1
-51 67 -104 147 -781 1157 -1772 2229 -2880 3115 -2129 1701 -4660 2762 -7255
3039 -467 50 -711 61 -1350 61 -462 0 -682 -8 -925 -30 -22 -2 -71 -7 -110
-10 -80 -7 -406 -42 -457 -50 -259 -37 -349 -50 -498 -76 -1946 -336 -3754
-1184 -5275 -2473 -465 -394 -968 -895 -1380 -1376 -1797 -2096 -2965 -4868
-3309 -7855 -28 -242 -62 -623 -71 -810 -4 -66 -8 -138 -10 -160 -25 -270 -25
-1305 0 -1670 3 -38 9 -144 15 -235 11 -168 43 -520 60 -665 5 -44 12 -105 15
-135 41 -375 163 -1086 271 -1565 121 -542 424 -1601 681 -2380 250 -759 658
-1854 888 -2380 31 -71 111 -256 177 -410 392 -916 982 -2061 1566 -3040 1462
-2451 3220 -4557 5487 -6575 1175 -1045 2497 -2074 4058 -3158 280 -193 1321
-891 1590 -1065 886 -571 1648 -1045 2667 -1660 352 -212 445 -268 1070 -640
157 -93 302 -176 324 -183 202 -72 396 140 309 337 -26 57 -68 94 -238 208
-4053 2729 -6342 4475 -8435 6435 -274 257 -1123 1102 -1361 1356 -2203 2347
-3835 4821 -5066 7675 -597 1384 -1099 2887 -1492 4460 -234 938 -350 1520
-421 2100 -36 299 -39 329 -45 400 -3 39 -8 93 -10 120 -31 336 -40 591 -40
1145 0 578 12 878 50 1255 2 28 7 77 10 110 37 387 116 918 200 1340 419 2103
1305 4026 2545 5525 376 454 822 904 1262 1272 1000 837 2153 1430 3379 1738
566 142 1101 219 1739 250 168 8 753 5 890 -5 696 -51 1114 -110 1655 -235
1599 -370 3141 -1124 4465 -2185 1922 -1540 3219 -3575 3670 -5760 54 -264
115 -657 135 -880 12 -138 16 -171 31 -260 96 -585 445 -1054 966 -1300 253
-118 542 -178 828 -169 715 21 1309 434 1568 1090 50 126 82 242 126 459 565
2797 1761 5406 3433 7490 904 1127 1959 2105 3088 2861 1314 882 2832 1519
4475 1878 692 152 1533 264 2170 291 80 4 161 8 180 10 76 9 919 4 1106 -5
1445 -73 2724 -359 3959 -885 222 -95 668 -314 873 -429 1289 -723 2305 -1737
3013 -3006 90 -162 268 -526 351 -720 366 -849 601 -1831 672 -2800 9 -113 18
-252 22 -310 8 -129 8 -883 0 -1000 -3 -47 -8 -132 -11 -190 -92 -1655 -590
-3546 -1429 -5431 -222 -499 -263 -586 -475 -1004 -1569 -3085 -3494 -5803
-6131 -8654 -995 -1076 -1980 -2063 -4160 -4171 -1968 -1902 -2952 -2882
-3951 -3935 -3330 -3510 -5960 -7314 -7766 -11235 -752 -1632 -1308 -3033
-1859 -4685 -399 -1199 -681 -2162 -998 -3405 -181 -711 -388 -1616 -388
-1701 0 -67 25 -131 71 -177 48 -47 87 -64 162 -70 114 -8 196 44 250 156 78
163 135 285 259 552 178 384 230 494 347 740 33 69 129 269 213 445 188 395
732 1491 910 1835 141 273 442 846 495 945 436 809 914 1668 1065 1915 15 25
53 90 85 145 274 471 824 1365 1153 1875 2129 3291 4402 6002 7282 8685 1203
1120 2419 2168 4875 4200 991 820 1695 1406 2030 1690 2055 1740 3499 3087
4835 4510 4168 4440 6878 9062 7865 13415 86 380 176 842 220 1125 119 779
181 1391 202 2027 14 404 8 1167 -12 1443 -2 33 -9 132 -15 220 -60 890 -230
1902 -465 2770 -196 723 -457 1429 -781 2113 -270 568 -661 1256 -947 1662
-45 63 -126 180 -182 260 -147 213 -495 654 -710 900 -582 668 -1210 1255
-1899 1774 -1571 1183 -3493 2025 -5596 2450 -326 66 -791 144 -1055 176 -49
6 -103 13 -120 15 -16 3 -86 11 -155 20 -116 14 -170 19 -450 45 -174 16 -516
39 -665 45 -77 3 -178 7 -225 10 -130 7 -804 17 -810 12z"/>
</g>
</svg>
