<?xml version="1.0" standalone="no"?>
<!DOCTYPE svg PUBLIC "-//W3C//DTD SVG 20010904//EN"
 "http://www.w3.org/TR/2001/REC-SVG-20010904/DTD/svg10.dtd">
<svg version="1.0" xmlns="http://www.w3.org/2000/svg"
 width="512.000000pt" height="512.000000pt" viewBox="0 0 512.000000 512.000000"
 preserveAspectRatio="xMidYMid meet">

<g transform="translate(0.000000,512.000000) scale(0.100000,-0.100000)"
fill="#000000" stroke="none">
<path d="M4365 4505 c-120 -65 -347 -201 -362 -217 -12 -13 -19 -41 -21 -89
l-4 -69 -109 0 -109 0 0 58 c0 75 -25 117 -77 131 -24 7 -191 11 -446 11 -256
0 -434 4 -476 11 -84 14 -164 2 -248 -37 -49 -23 -115 -84 -438 -404 l-380
-377 -64 -18 c-165 -49 -320 -212 -366 -386 -19 -71 -19 -210 0 -284 34 -129
56 -156 429 -533 193 -194 354 -359 359 -367 4 -8 6 -112 5 -232 l-3 -218
-130 -6 c-103 -5 -145 -11 -202 -31 -222 -79 -384 -256 -439 -481 l-17 -67
-98 0 -99 0 0 164 0 164 -29 31 -29 31 -229 0 c-303 -1 -293 8 -293 -234 l0
-156 -111 0 c-109 0 -111 0 -140 -29 -41 -41 -39 -83 5 -127 l34 -34 2295 2
2295 3 26 24 c33 31 41 72 22 110 -24 45 -44 51 -160 51 l-106 0 0 151 c0 166
-10 207 -56 228 -16 7 -101 11 -244 11 -217 0 -219 0 -247 -24 l-28 -24 -5
-169 -5 -168 -99 0 -98 0 -19 73 c-45 177 -176 344 -334 424 -118 60 -159 70
-320 77 l-150 6 -5 400 c-6 432 -4 413 -65 536 -21 41 -93 120 -306 334 -154
155 -279 285 -279 290 0 6 142 152 315 325 174 173 325 330 336 348 l21 32
316 0 c285 0 319 2 338 18 33 26 44 56 44 116 l0 56 110 0 110 0 0 -55 c0 -31
7 -69 15 -84 20 -40 375 -245 421 -244 21 1 89 34 202 99 214 124 222 131 222
188 0 37 -5 48 -31 70 -17 14 -43 26 -57 26 -16 0 -92 -37 -182 -89 l-154 -90
-61 35 c-33 19 -86 49 -117 66 l-58 33 0 141 0 141 115 67 c63 36 117 66 120
66 2 0 70 -38 150 -85 166 -96 205 -106 250 -60 30 30 34 92 8 124 -25 29
-361 221 -398 227 -17 3 -43 -2 -60 -11z m-1580 -370 c40 -16 94 -71 111 -112
18 -43 18 -125 -1 -171 -11 -25 -113 -135 -307 -329 l-292 -292 -19 32 c-59
98 -182 202 -269 229 -21 6 -38 14 -38 17 0 12 605 609 630 622 58 29 120 31
185 4z m775 -100 l0 -95 -225 0 -224 0 -6 38 c-3 20 -13 63 -24 95 l-18 57
248 0 249 0 0 -95z m-1654 -712 c99 -33 176 -101 222 -193 24 -48 27 -67 27
-150 0 -82 -4 -103 -27 -152 -107 -228 -409 -281 -584 -101 -73 75 -99 139
-99 248 0 78 4 98 28 150 78 167 268 254 433 198z m662 -736 c258 -260 277
-289 277 -417 -1 -92 -27 -153 -95 -221 -85 -85 -210 -111 -327 -68 -53 20
-81 45 -315 277 -142 141 -258 259 -258 262 0 3 28 11 62 17 158 30 315 152
384 297 20 42 39 76 43 76 4 0 107 -100 229 -223z m280 -959 l-3 -143 -295 0
-295 0 -3 133 -3 133 48 -25 c158 -80 360 -75 493 13 25 16 48 30 53 30 4 1 6
-63 5 -141z m473 -354 c89 -27 150 -63 216 -130 62 -61 118 -157 125 -214 l3
-25 -1098 -3 -1099 -2 7 32 c23 106 131 242 237 298 111 59 92 58 854 59 617
1 707 -1 755 -15z m-2443 -271 l-3 -98 -95 0 -95 0 -3 98 -3 97 101 0 101 0
-3 -97z m3572 -3 l0 -100 -95 0 -95 0 0 100 0 100 95 0 95 0 0 -100z"/>
<path d="M1743 3052 c-48 -38 -47 -111 2 -152 43 -36 124 -9 146 49 12 31 -6
86 -34 106 -29 20 -87 19 -114 -3z"/>
</g>
</svg>
