<?xml version="1.0" standalone="no"?>
<!DOCTYPE svg PUBLIC "-//W3C//DTD SVG 20010904//EN"
 "http://www.w3.org/TR/2001/REC-SVG-20010904/DTD/svg10.dtd">
<svg version="1.0" xmlns="http://www.w3.org/2000/svg"
 width="1024.000000pt" height="1172.000000pt" viewBox="0 0 1024.000000 1172.000000"
 preserveAspectRatio="xMidYMid meet">

<g transform="translate(0.000000,1172.000000) scale(0.100000,-0.100000)"
fill="#000000" stroke="none">
<path d="M4250 9241 c-45 -11 -107 -61 -173 -139 -36 -42 -77 -90 -91 -106
-24 -26 -26 -37 -26 -113 0 -96 16 -136 74 -192 51 -49 50 -91 -3 -142 -42
-40 -96 -126 -112 -181 -5 -18 -14 -81 -19 -141 -6 -59 -14 -115 -19 -125 -13
-24 -47 -182 -76 -349 -17 -99 -26 -203 -31 -345 l-7 -203 -78 -73 c-43 -40
-98 -90 -123 -110 -90 -73 -238 -281 -319 -447 -27 -55 -66 -128 -88 -161 -47
-73 -64 -153 -55 -261 6 -82 11 -95 85 -223 29 -52 63 -110 73 -129 33 -58
166 -254 193 -285 6 -6 26 -31 44 -56 19 -25 51 -62 70 -83 l36 -38 -38 -34
c-51 -45 -70 -103 -62 -182 4 -35 11 -63 16 -63 14 0 11 -41 -5 -59 -16 -19
-196 -323 -227 -383 -12 -23 -29 -54 -39 -68 -72 -106 -115 -178 -130 -218
-10 -26 -40 -94 -68 -152 -27 -58 -60 -134 -72 -170 -12 -36 -37 -101 -55
-145 -46 -113 -109 -314 -130 -418 l-18 -87 -43 -20 c-24 -10 -98 -48 -164
-84 -67 -36 -126 -66 -133 -67 -23 -1 -249 -154 -286 -193 -16 -17 -21 -31
-16 -45 6 -19 14 -21 106 -21 l99 0 -40 -52 c-25 -31 -40 -59 -38 -72 3 -19
10 -21 101 -24 53 -1 97 -6 97 -10 0 -4 -18 -23 -41 -43 -38 -33 -41 -38 -32
-65 12 -36 42 -41 117 -20 30 9 62 16 72 16 10 0 61 13 114 29 87 26 199 51
228 51 9 0 11 -22 6 -82 -9 -122 -11 -120 156 -108 139 11 167 16 259 53 l54
22 16 -25 c23 -37 109 -126 165 -173 48 -40 48 -41 93 -29 24 7 70 30 101 51
180 122 222 145 222 122 0 -5 10 -11 23 -15 12 -3 38 -20 57 -39 65 -63 151
-119 189 -124 34 -4 39 -1 78 49 23 29 66 77 96 106 l53 53 147 -71 c81 -39
189 -82 239 -97 l91 -26 20 24 c11 13 33 53 50 87 29 62 31 64 61 58 29 -5
116 -15 284 -32 l72 -7 0 30 c0 16 -11 63 -25 103 -14 40 -25 75 -25 78 0 2
10 1 23 -2 155 -45 258 -66 316 -66 37 0 72 -5 78 -11 6 -6 16 -8 22 -5 19 12
12 52 -18 97 l-30 43 67 21 c76 24 86 40 48 79 -26 25 -34 46 -17 46 18 0 71
52 71 68 -1 37 -186 160 -288 192 -74 24 -208 73 -249 92 -31 14 -45 27 -49
46 -3 15 -16 61 -29 102 -13 41 -29 102 -36 135 -6 33 -19 83 -29 110 -10 28
-32 97 -50 155 -18 58 -48 148 -67 200 -44 122 -52 155 -53 213 0 49 -31 183
-58 251 -14 35 -14 39 2 48 58 33 199 163 308 286 27 31 45 42 66 42 78 0 217
58 307 129 127 99 184 167 244 289 102 207 131 346 131 628 l0 204 38 0 c71 0
161 30 264 86 156 86 235 133 250 147 7 7 31 23 53 35 139 75 211 80 385 27
222 -69 274 -86 369 -127 53 -23 132 -54 176 -70 44 -15 86 -36 93 -45 19 -26
189 -33 198 -9 3 9 13 16 20 16 8 0 28 14 45 31 41 42 28 75 -72 184 -20 22
-55 63 -77 90 -55 68 -226 242 -286 291 -27 21 -72 62 -100 89 -28 28 -66 61
-84 75 -19 14 -39 30 -45 35 -52 45 -97 74 -127 79 -34 7 -75 20 -115 36 -11
5 -82 23 -159 40 -116 27 -142 30 -161 20 -15 -8 -40 -10 -67 -6 -32 5 -69 -1
-147 -24 -110 -32 -141 -36 -157 -20 -5 5 -45 15 -89 21 -109 15 -248 -3 -375
-49 -52 -19 -115 -40 -139 -47 l-44 -14 -97 73 c-126 96 -365 227 -482 265
-20 7 -47 20 -60 30 -52 41 -222 79 -360 81 -24 0 -27 5 -37 50 -6 28 -11 79
-11 113 0 122 -72 289 -163 380 -32 31 -53 57 -48 57 13 0 54 68 47 79 -4 5
-2 11 3 13 21 7 51 162 51 264 0 147 -16 185 -139 325 l-64 73 6 165 c6 150 4
170 -13 209 -19 41 -20 42 -67 41 -26 -1 -59 -4 -73 -8z m90 -60 c6 -12 7 -75
3 -173 -3 -85 -3 -167 1 -181 3 -14 35 -61 71 -104 35 -42 79 -104 96 -136 31
-58 32 -63 26 -147 -6 -89 -63 -287 -93 -321 -8 -8 -14 -25 -14 -37 0 -30 21
-72 36 -72 43 0 129 -135 158 -246 12 -46 35 -239 36 -296 0 -5 9 -17 20 -28
17 -17 33 -20 108 -20 127 0 228 -29 417 -119 55 -26 123 -58 150 -70 63 -29
198 -118 290 -192 88 -70 112 -84 129 -70 17 14 248 90 326 107 95 20 185 18
260 -7 58 -20 69 -21 129 -9 36 7 81 18 98 26 18 7 91 18 163 23 110 9 136 8
159 -4 27 -13 236 -72 295 -83 17 -2 39 -14 51 -26 12 -12 43 -39 70 -61 141
-116 189 -159 285 -256 216 -218 306 -315 334 -362 27 -47 27 -49 9 -62 -28
-22 -139 -25 -177 -6 -12 6 -79 32 -151 59 -71 27 -150 59 -175 70 -25 12 -97
37 -160 57 -63 20 -144 46 -180 57 -47 16 -98 22 -186 25 l-120 4 -95 -52
c-52 -28 -103 -60 -114 -70 -11 -10 -54 -36 -95 -57 -41 -22 -109 -59 -150
-83 -75 -44 -75 -44 -175 -44 -55 -1 -106 -4 -112 -8 -10 -6 -13 -50 -13 -166
0 -297 -46 -521 -147 -725 -70 -140 -109 -190 -188 -240 -134 -85 -236 -108
-508 -114 -238 -4 -253 -8 -207 -58 22 -23 29 -24 144 -24 139 0 160 -7 131
-42 -89 -104 -219 -215 -279 -238 -25 -9 -28 -14 -23 -43 2 -17 16 -64 31
-102 37 -102 56 -191 56 -263 0 -47 7 -77 25 -116 37 -78 82 -214 90 -271 8
-53 36 -149 61 -202 7 -17 14 -38 14 -47 0 -33 58 -220 84 -271 13 -27 25 -33
108 -54 51 -13 118 -34 148 -48 97 -44 194 -95 227 -119 17 -13 36 -24 42 -24
6 0 11 -7 11 -16 0 -13 -9 -15 -47 -11 -27 2 -58 8 -70 12 -16 5 -24 2 -32
-14 -10 -18 -8 -23 21 -41 34 -20 102 -80 96 -85 -34 -28 -93 -32 -120 -8 -20
18 -66 47 -132 83 -33 19 -41 20 -53 8 -19 -20 -9 -41 29 -57 17 -8 65 -48
107 -90 l76 -76 -37 -3 c-35 -3 -233 51 -252 69 -6 5 -25 9 -43 9 -18 0 -41 4
-51 10 -9 5 -35 18 -57 29 -22 10 -68 33 -103 51 -62 31 -92 34 -92 8 0 -15
109 -88 160 -108 42 -16 70 -43 70 -67 0 -10 9 -45 19 -78 10 -33 17 -62 16
-63 -5 -5 -179 17 -242 30 -55 12 -63 24 -63 103 0 35 -21 60 -44 52 -10 -4
-15 -32 -18 -104 -4 -94 -15 -130 -64 -201 -7 -11 -149 36 -245 82 -64 31
-119 56 -122 56 -3 0 -24 17 -47 38 -74 65 -181 133 -201 127 -30 -10 -22 -30
28 -74 85 -76 85 -71 0 -156 -41 -41 -84 -75 -94 -75 -23 0 -73 22 -73 33 0 4
-6 7 -12 7 -7 0 -42 27 -77 59 l-64 59 34 23 c19 13 54 45 79 72 35 38 42 52
34 65 -18 27 -31 24 -66 -13 -42 -47 -193 -162 -323 -247 -143 -93 -141 -93
-172 -72 -37 24 -161 152 -191 196 -19 29 -28 35 -41 29 -129 -69 -233 -92
-353 -77 l-55 7 1 84 c1 47 -4 89 -9 94 -8 8 -35 6 -90 -5 -114 -22 -366 -81
-394 -92 -9 -3 3 16 27 42 23 27 42 52 42 56 0 15 -64 30 -131 30 -37 0 -70 4
-73 9 -4 5 17 34 45 65 75 82 69 92 -61 88 l-105 -4 72 51 c40 28 78 51 86 51
7 0 41 18 74 40 34 22 128 74 210 116 124 64 149 80 154 102 4 15 16 68 27
117 11 50 42 151 69 225 27 74 69 189 92 255 24 66 74 185 112 264 38 79 69
147 69 151 0 4 13 25 28 46 31 44 59 91 122 209 24 44 67 119 96 167 30 48 54
91 54 94 0 3 14 23 30 45 17 21 38 59 47 84 14 42 14 51 -2 114 l-18 68 24 39
c13 22 33 50 45 63 55 60 55 60 -42 172 -49 57 -97 118 -107 137 -10 18 -38
58 -62 88 -25 30 -53 67 -62 82 -10 15 -20 29 -23 32 -12 10 -83 133 -124 213
-40 80 -41 84 -40 182 1 116 -3 107 152 375 92 160 149 243 222 325 46 51 122
126 147 145 11 8 48 40 82 71 l61 57 0 119 c0 153 16 364 36 478 22 127 55
268 66 282 5 6 13 67 19 135 5 67 15 139 21 158 16 49 77 158 97 173 40 30 61
70 61 118 0 42 -5 53 -36 86 -53 54 -63 73 -70 133 -6 54 -5 56 39 115 88 116
216 235 253 235 7 0 18 -9 24 -19z"/>
<path d="M4285 8553 c-71 -18 -136 -68 -185 -142 -8 -13 -24 -35 -34 -49 -19
-23 -36 -132 -22 -132 3 0 26 30 50 68 74 113 115 153 166 162 74 15 128 11
170 -10 l40 -20 6 24 c11 45 1 70 -36 88 -33 17 -109 22 -155 11z"/>
<path d="M4261 8373 c-36 -15 -81 -60 -103 -103 -7 -14 -23 -36 -36 -50 -61
-67 -80 -135 -37 -135 12 0 39 25 73 70 127 167 167 193 217 139 39 -42 86
-14 65 40 -20 54 -104 72 -179 39z"/>
<path d="M4085 7134 c-44 -16 -105 -55 -105 -67 0 -4 8 -3 19 2 26 14 159 41
202 41 54 0 120 -34 148 -75 20 -29 23 -43 18 -83 -11 -97 -123 -259 -208
-302 -46 -24 -153 -27 -202 -6 -43 17 -85 68 -93 110 -5 29 7 118 24 166 2 8
-11 0 -29 -18 -33 -31 -34 -35 -34 -110 0 -65 4 -83 24 -113 38 -56 81 -80
160 -89 121 -16 209 24 295 132 116 148 139 315 52 378 -67 48 -189 64 -271
34z"/>
<path d="M4093 7041 c-54 -25 -129 -95 -154 -143 -13 -25 -19 -58 -19 -102 0
-61 2 -67 35 -101 31 -30 42 -35 83 -35 48 0 111 24 162 60 43 31 101 144 107
210 5 53 4 58 -29 93 -32 34 -40 37 -89 37 -31 0 -72 -8 -96 -19z"/>
<path d="M7038 6959 c-13 -17 -50 -52 -84 -79 -75 -59 -92 -93 -95 -190 -2
-73 -2 -75 22 -75 22 0 24 4 27 55 4 86 8 95 74 148 80 63 111 92 132 124 18
28 16 32 -26 42 -23 5 -31 1 -50 -25z"/>
<path d="M7170 6922 c0 -11 -9 -31 -20 -45 -11 -14 -20 -28 -20 -33 0 -7 -26
-32 -98 -97 -50 -44 -78 -116 -52 -132 14 -9 50 4 50 18 0 7 8 30 17 53 13 32
31 50 78 79 74 45 96 73 98 128 2 39 0 42 -25 45 -22 3 -28 -1 -28 -16z"/>
<path d="M5377 6826 c-77 -42 -107 -72 -144 -146 -37 -74 -37 -76 -38 -200 0
-124 0 -126 37 -200 36 -75 74 -118 157 -178 41 -30 50 -32 125 -32 94 1 117
9 185 68 92 79 114 139 95 263 l-8 54 -7 -71 c-8 -83 -36 -145 -90 -194 -73
-68 -100 -80 -177 -80 -66 0 -94 14 -167 86 -92 90 -130 210 -106 338 14 77
77 205 108 219 13 5 23 13 23 17 0 12 50 30 85 30 49 0 134 -20 175 -40 33
-17 112 -93 121 -117 2 -6 14 -14 27 -17 33 -11 29 19 -8 56 -16 16 -30 33
-30 37 0 21 -76 80 -123 95 -75 25 -204 31 -240 12z"/>
<path d="M3550 6709 c-38 -23 -143 -109 -148 -122 -2 -4 -9 -13 -16 -20 -50
-51 -116 -236 -116 -323 0 -107 65 -164 152 -135 44 15 156 107 189 156 15 22
42 69 61 105 30 59 33 73 37 172 2 69 -1 119 -9 137 -21 52 -90 66 -150 30z"/>
<path d="M5430 6688 c-77 -39 -110 -116 -110 -256 0 -70 26 -143 66 -188 31
-34 99 -64 148 -64 40 0 50 5 91 46 25 25 45 50 45 54 0 5 7 16 16 24 19 19
38 146 30 197 -9 58 -61 164 -91 187 -39 31 -134 31 -195 0z"/>
<path d="M3761 6481 c-19 -45 0 -139 72 -351 l62 -185 49 -3 c34 -2 72 5 120
22 58 20 249 70 353 92 18 3 26 -5 48 -53 38 -84 53 -111 102 -181 l45 -63
174 3 c96 2 174 -1 174 -6 0 -4 23 -39 50 -77 28 -38 50 -72 50 -75 0 -20 64
-104 79 -104 10 0 40 15 67 32 51 34 55 37 92 67 13 11 50 36 83 57 50 32 59
43 57 64 -3 21 -9 26 -39 28 -35 3 -139 -40 -139 -57 0 -11 -100 -72 -109 -67
-3 2 -29 40 -56 83 -87 137 -69 128 -260 126 l-164 -3 -25 33 c-14 18 -42 68
-61 110 -19 42 -39 78 -43 81 -5 3 -21 30 -36 60 -16 31 -35 56 -42 56 -25 0
-206 -30 -299 -49 -49 -11 -113 -22 -141 -26 -50 -6 -52 -6 -58 22 -10 37 -90
259 -111 303 -35 76 -41 85 -61 88 -15 2 -25 -5 -33 -27z"/>
<path d="M5499 6012 c-71 -27 -106 -58 -149 -135 -56 -101 -53 -125 10 -92 24
12 34 13 66 1 30 -10 40 -20 47 -46 11 -45 -5 -78 -56 -117 -23 -17 -61 -50
-85 -73 -46 -45 -47 -49 -15 -140 18 -50 41 -82 55 -74 4 3 7 0 6 -6 -2 -7 13
-21 32 -32 50 -28 145 -18 215 22 67 38 74 47 136 165 l52 100 -6 123 c-7 144
-23 186 -98 257 -73 69 -120 79 -210 47z"/>
<path d="M4785 4848 c-2 -7 -9 -32 -15 -55 -6 -23 -15 -45 -20 -48 -22 -14 -6
-68 55 -188 35 -69 68 -144 71 -167 4 -22 12 -44 19 -50 15 -12 45 -3 45 14 0
36 -36 138 -84 238 l-55 113 21 62 c11 34 18 69 15 78 -8 18 -46 20 -52 3z"/>
<path d="M4124 4137 c-16 -19 -34 -54 -34 -66 0 -6 9 -11 19 -11 32 0 51 -38
51 -102 0 -67 -18 -92 -62 -86 l-28 5 0 -77 c0 -73 1 -77 35 -113 41 -44 75
-48 110 -13 39 39 55 114 55 260 0 117 -3 135 -23 171 -21 36 -26 40 -67 42
-27 2 -49 -2 -56 -10z"/>
<path d="M3613 4120 c-20 -8 -63 -64 -63 -81 0 -3 13 -4 30 -1 25 4 31 0 41
-24 12 -32 5 -110 -12 -130 -14 -17 -61 -18 -77 -2 -18 18 -16 -121 3 -163 25
-57 39 -69 81 -69 42 0 52 10 86 84 27 57 46 261 29 315 -21 72 -59 94 -118
71z"/>
<path d="M2680 3039 c-124 -13 -155 -22 -155 -44 0 -17 8 -20 52 -23 29 -2 62
2 74 8 11 7 23 9 26 7 10 -10 -27 -63 -61 -87 -42 -30 -44 -37 -10 -50 37 -14
38 -14 79 27 71 71 107 121 103 145 -4 27 -10 28 -108 17z"/>
<path d="M3255 2939 c-171 -74 -166 -71 -163 -98 3 -22 7 -26 31 -23 16 2 55
16 87 33 32 16 65 27 73 23 16 -6 27 -34 27 -70 0 -31 21 -45 43 -29 15 11 17
26 15 101 -4 107 -8 109 -113 63z"/>
</g>
</svg>
