<?xml version="1.0" standalone="no"?>
<!DOCTYPE svg PUBLIC "-//W3C//DTD SVG 20010904//EN"
 "http://www.w3.org/TR/2001/REC-SVG-20010904/DTD/svg10.dtd">
<svg version="1.0" xmlns="http://www.w3.org/2000/svg"
 width="512.000000pt" height="512.000000pt" viewBox="0 0 512.000000 512.000000"
 preserveAspectRatio="xMidYMid meet">

<g transform="translate(0.000000,512.000000) scale(0.100000,-0.100000)"
fill="#000000" stroke="none">
<path d="M203 5108 c-27 -13 -47 -60 -40 -90 4 -13 57 -74 120 -136 97 -96
119 -112 146 -112 43 0 81 38 81 82 0 28 -16 48 -118 150 -122 122 -138 131
-189 106z"/>
<path d="M805 5101 c-16 -10 -72 -61 -122 -114 -82 -85 -93 -100 -93 -132 0
-47 36 -85 81 -85 28 0 48 16 146 113 132 131 144 157 95 207 -35 34 -64 38
-107 11z"/>
<path d="M3564 4886 c-28 -28 -34 -42 -34 -76 0 -34 6 -48 34 -76 29 -29 41
-34 79 -34 37 0 51 5 76 31 26 25 31 39 31 76 0 38 -5 50 -34 79 -28 28 -42
34 -76 34 -34 0 -48 -6 -76 -34z"/>
<path d="M288 4593 c-135 -132 -151 -165 -104 -219 18 -21 32 -28 61 -28 34 0
46 9 151 115 98 99 114 120 114 148 0 45 -38 81 -85 81 -32 0 -47 -11 -137
-97z"/>
<path d="M612 4667 c-14 -15 -22 -36 -22 -58 0 -31 13 -47 115 -149 103 -103
118 -114 150 -114 43 0 72 26 81 72 6 31 1 38 -112 152 -108 110 -121 120
-154 120 -25 0 -43 -7 -58 -23z"/>
<path d="M2483 4662 c-30 -5 -63 -48 -63 -84 0 -19 13 -42 40 -72 22 -24 40
-47 40 -51 0 -4 -18 -27 -40 -51 -49 -53 -53 -93 -14 -129 41 -38 77 -33 132
19 l47 44 47 -44 c56 -52 95 -58 133 -19 40 39 34 86 -17 141 l-41 45 41 42
c51 52 57 99 17 137 -39 36 -79 30 -131 -21 l-44 -43 -37 36 c-42 40 -76 56
-110 50z"/>
<path d="M4319 4635 c-109 -35 -185 -146 -177 -259 7 -105 59 -179 157 -224
45 -21 64 -24 117 -19 207 16 309 243 186 413 -58 80 -186 120 -283 89z m143
-183 c10 -10 21 -35 25 -55 5 -31 1 -40 -25 -67 -61 -61 -152 -26 -152 59 0
32 6 44 32 66 26 22 39 26 67 21 19 -3 43 -14 53 -24z"/>
<path d="M1951 3859 c-122 -21 -193 -70 -355 -248 -74 -80 -131 -134 -149
-141 -55 -19 -85 1 -236 160 -179 188 -208 205 -356 205 -87 0 -107 -3 -157
-27 -145 -68 -234 -234 -209 -388 5 -30 46 -222 90 -426 105 -486 115 -568 91
-764 -17 -132 -53 -256 -145 -485 -89 -222 -183 -498 -206 -600 -22 -98 -17
-343 9 -438 39 -142 94 -228 191 -295 197 -138 532 -232 1191 -336 384 -61
499 -70 865 -70 195 0 383 5 460 12 274 27 613 78 692 103 65 21 83 90 37 136
-23 23 -31 25 -82 20 -32 -3 -109 -15 -172 -27 -328 -59 -675 -85 -1035 -77
-290 6 -431 20 -763 73 -783 124 -1114 241 -1193 420 -49 109 -63 298 -33 441
22 107 90 308 193 571 126 321 151 415 166 632 11 151 -9 290 -106 738 -99
458 -100 470 -49 541 39 54 97 82 167 82 77 0 110 -23 257 -183 147 -159 192
-188 291 -188 119 0 152 21 320 203 174 188 211 205 407 188 154 -13 195 -31
286 -125 92 -95 142 -120 242 -119 60 0 92 7 160 33 153 58 287 53 420 -16 84
-44 117 -77 256 -250 145 -183 209 -233 349 -269 80 -20 155 -19 299 6 146 25
215 21 301 -20 152 -71 233 -210 223 -380 -5 -72 -9 -83 -137 -335 -75 -149
-139 -289 -149 -326 -26 -101 -23 -284 7 -380 43 -139 76 -193 242 -391 61
-73 123 -156 135 -184 33 -70 33 -171 0 -240 -48 -98 -89 -128 -266 -191 -74
-27 -143 -57 -152 -66 -43 -43 -4 -138 56 -138 29 0 254 78 316 110 56 29 131
100 171 161 84 132 92 316 18 461 -10 20 -76 105 -145 190 -150 180 -176 219
-206 307 -18 53 -23 88 -23 181 0 146 7 166 150 440 62 118 121 242 131 275
25 83 25 240 0 315 -71 210 -223 345 -436 387 -79 16 -90 16 -204 -2 -192 -29
-261 -30 -327 -6 -76 29 -121 70 -238 220 -129 165 -200 230 -304 280 -170 82
-327 90 -524 27 -160 -52 -164 -51 -263 57 -77 84 -169 132 -281 146 -122 16
-231 19 -288 10z"/>
<path d="M2060 3030 c-30 -30 -27 -83 6 -109 35 -28 69 -26 99 4 50 49 19 125
-50 125 -22 0 -43 -8 -55 -20z"/>
<path d="M3050 2927 c-52 -26 -52 -105 0 -132 38 -20 52 -19 84 6 37 29 37 89
0 118 -31 24 -49 26 -84 8z"/>
<path d="M1630 2762 c-35 -36 -38 -69 -10 -105 24 -30 43 -36 235 -76 391 -82
896 -126 1352 -119 218 3 222 3 247 27 34 32 35 83 3 115 l-23 23 -370 6
c-485 7 -842 42 -1199 118 -219 47 -200 46 -235 11z"/>
<path d="M4088 377 c-43 -12 -86 -30 -97 -39 -46 -39 -34 -109 22 -136 23 -11
38 -10 105 8 97 26 117 36 131 67 16 36 13 59 -11 87 -32 36 -62 38 -150 13z"/>
</g>
</svg>
